<svg version="1" xmlns="http://www.w3.org/2000/svg" width="346.667" height="346.667" viewBox="0 0 260.000000 260.000000"><path d="M0 130v130h260V0H0v130zm93-64.1v8.9l-3.7 1.9c-2.3 1.1-4.4 3.3-5.7 5.8-2 3.8-2.1 5.9-2.4 40.2-.2 24.8.1 37.6.8 40.5 1.3 4.4 6.7 10.8 9.4 10.8 1.3 0 1.6 1.4 1.6 9.1v9.2l-5.9-.6c-14.2-1.2-25-12.3-28.1-28.7-1.4-7.2-1.3-69 .1-76.6 3.2-17.3 15.3-28.7 31.2-29.3L93 57v8.9zm17.2-6.3c10.2 3.3 18.6 14.9 20.8 28.4 1.6 10.2 1.3 67.1-.4 75.1-3.6 16.8-13.7 27.1-28.1 28.6l-5.5.6v-17.8l3.2-1.5c4.3-2 6.6-5.5 7.8-11.9 1.4-7.3 1.3-66.6-.1-73.1-1.2-5.5-4.8-10.6-8.6-12.1-2.2-.8-2.3-1.3-2.3-10v-9.2l4.3.7c2.3.4 6.3 1.3 8.9 2.2zm65.8 6.3v8.9l-3 1.2c-4 1.7-6.2 6-6.2 12.2.1 7 3.2 12.6 10.9 19.8l6.6 6.2-8 7.9-7.9 8-9-8.8c-11.8-11.5-14.8-17.2-15.2-29.5-.5-12.1 1.4-17.6 8.8-25 4.5-4.5 6.9-6 12.1-7.7 11.1-3.5 10.9-3.6 10.9 6.8zm17.7-5.5c9.8 4.9 16.7 14.9 17.9 25.7.8 6.6 1.4 6.1-11.1 7.9-4.4.6-9 1.4-10.2 1.7-2.2.5-2.3.2-2.3-4.9 0-5.9-2.5-12.1-6-14.5-1.8-1.2-2-2.5-2-10.5v-9.1l4.5.6c2.5.4 6.6 1.7 9.2 3.1zm2.1 65.1c5.7 6 9.2 10.8 11.9 16.1 3.3 6.8 3.8 8.6 4.1 16.9.5 10.4-.4 14-4.9 20.8-4.4 6.7-12.4 11.3-22.6 13.1l-3.3.5V184c0-8.7.1-8.9 2.8-10.2 4-1.9 6.4-7.3 5.8-12.9-.7-7.1-4.4-13.6-12-21.7l-6.9-7.3 7.4-7.5c4-4 7.9-7.4 8.5-7.4.7 0 4.8 3.8 9.2 8.5zm-28.5 29.9c.8 8 3.1 13.9 6.8 17 2.8 2.4 2.9 2.8 2.9 11v8.6h-3.2c-8.2-.2-17.1-5.7-22.7-14.1-4.1-6.1-7.5-16.6-6.9-21.4.3-2.9.5-3 10.8-5.1 5.8-1.2 10.8-2.2 11.1-2.3.3-.1.9 2.8 1.2 6.3z"/></svg>