<svg xmlns="http://www.w3.org/2000/svg" viewBox="0 0 141.67 139.54">
  <title>icon-clock</title>
  <path d="M419.83,710.46V690a1,1,0,0,0-2,0v20.46l1,0Z" transform="translate(-348 -689)" fill="#fff" />
  <path d="M393.77,717.44c.57-.35,1.15-.68,1.73-1l-10.24-17.7a1,1,0,0,0-1.36-.36,1,1,0,0,0-.37,1.36Z" transform="translate(-348 -689)"
    fill="#fff" />
  <path d="M358.5,723.73a1,1,0,0,0,.37,1.36l17.68,10.27c.32-.58.65-1.16,1-1.73l-17.68-10.27A1,1,0,0,0,358.5,723.73Z"
    transform="translate(-348 -689)" fill="#fff" />
  <path d="M454.41,697.52a1,1,0,0,0-1.37.36l-10.8,18.6c.58.33,1.16.66,1.73,1l10.8-18.59A1,1,0,0,0,454.41,697.52Z"
    transform="translate(-348 -689)" fill="#fff" />
  <path d="M479.78,724.67a1,1,0,0,0,.37-1.37,1,1,0,0,0-1.37-.36l-18.61,10.77c.34.56.67,1.14,1,1.73Z" transform="translate(-348 -689)"
    fill="#fff" />
  <path d="M370.5,758.77c0-.33,0-.67,0-1H349a1,1,0,0,0,0,2h21.53C370.52,759.44,370.5,759.11,370.5,758.77Z" transform="translate(-348 -689)"
    fill="#fff" />
  <path d="M488.67,757.77H467.14c0,.33,0,.67,0,1s0,.67,0,1h21.53a1,1,0,1,0,0-2Z" transform="translate(-348 -689)" fill="#fff" />
  <path d="M478.8,792.45l-17.68-10.27c-.32.58-.65,1.16-1,1.73l17.68,10.27a1,1,0,1,0,1-1.73Z" transform="translate(-348 -689)"
    fill="#fff" />
  <path d="M357.88,792.87a1,1,0,0,0,.51,1.87.93.93,0,0,0,.5-.14l18.61-10.76c-.35-.57-.67-1.15-1-1.74Z" transform="translate(-348 -689)"
    fill="#fff" />
  <path d="M443.9,800.1c-.57.35-1.15.68-1.73,1l10.23,17.7a1,1,0,0,0,.87.5.93.93,0,0,0,.5-.14,1,1,0,0,0,.36-1.36Z"
    transform="translate(-348 -689)" fill="#fff" />
  <path d="M382.89,818.65a1,1,0,0,0,.37,1.37,1,1,0,0,0,.5.14,1,1,0,0,0,.86-.5l10.81-18.6c-.59-.33-1.17-.65-1.73-1Z"
    transform="translate(-348 -689)" fill="#fff" />
  <path d="M417.83,807.08v20.46a1,1,0,0,0,2,0V807.08l-1,0Z" transform="translate(-348 -689)" fill="#fff" />
  <path d="M452.75,740.89a1.5,1.5,0,0,0-1.51-2.6l-28.43,16.45h0a5.65,5.65,0,0,0-7.95,0l-20.34-11.82a1.5,1.5,0,0,0-1.51,2.6l20.35,11.82a5.66,5.66,0,1,0,11.14,1.44,5.55,5.55,0,0,0-.19-1.43Zm-29.41,14.46,0-.08Zm.4.59,0,0Zm-9.78-.05,0,0Zm.42-.62-.05.06Zm4.45,6.17a2.67,2.67,0,1,1,2.67-2.67A2.67,2.67,0,0,1,418.83,761.44Z"
    transform="translate(-348 -689)" fill="#fff" />
</svg>
