<svg xmlns="http://www.w3.org/2000/svg" viewBox="0 0 94.16 88.62"><title>icon-features-cool</title><path d="M87.19,22.42q-.85,2.61-1.68,5.23a43,43,0,0,1-13,54.16,13,13,0,0,1,3.14,2.67A47.08,47.08,0,0,0,87.19,22.42Z" fill="#826550"/><path d="M9.52,70.34l1.34,0A43.06,43.06,0,0,1,66,8.38a22.89,22.89,0,0,1,2.44-3.26A47.08,47.08,0,0,0,6.23,70.48C7.36,70.37,8.48,70.34,9.52,70.34Z" fill="#826550"/><path d="M53.45,82c.44-6.14-.87-14,.66-19.07,4.53-.08,9.56.35,13.15-.66,8.18-14.84,12-34,18.42-50.64V9c-.68-3-3.75-3.7-6.58-4.6h-.65c-10.6,3.43-12,16.1-14.47,27.62-15.8-4.14-32.3-.06-32.89,15.13-4.52.07-8,1.22-9.86,3.94C20.66,57.84,22.8,61.84,27.81,63a22.16,22.16,0,0,1-7.24,12.49c-6.4.62-15.63-1.6-19.07,2v2.63c3.15,3.86,12.85,1.18,19.07,2C27.16,78.11,29,69.45,32.41,62.31c4.67.37,10.86-.78,14.47.66V82.7c-7.83.5-15.45,1.21-19.07,5.92H72.53C69.27,83.33,60.05,84,53.45,82ZM37.67,47.19C38.35,35.48,53,35.5,63.32,38.64c.1,4.72-.52,10.16,1.31,13.15C57.59,50.94,47.56,47.39,37.67,47.19Z" fill="#826550"/></svg>
