<svg xmlns="http://www.w3.org/2000/svg" width="320" height="165" viewBox="0 0 155.71 80.2">
  <title>logo-desktop</title>
  <path d="M54.57,45.94a2.61,2.61,0,0,0-1.46.59,3.34,3.34,0,0,0-.88,1.2,5.37,5.37,0,0,0-.44,1.57,12.25,12.25,0,0,0-.12,1.7V64.71a12.25,12.25,0,0,0,.12,1.7A5.43,5.43,0,0,0,52.22,68a3.31,3.31,0,0,0,.88,1.2,2.75,2.75,0,0,0,1.47.59v4.32a9.17,9.17,0,0,1-4-.93,7.16,7.16,0,0,1-2.6-2.3,9.26,9.26,0,0,1-1.41-3.33,18.74,18.74,0,0,1-.42-4.06V52.37a19.48,19.48,0,0,1,.41-4.13,9.43,9.43,0,0,1,1.4-3.38,7.07,7.07,0,0,1,2.61-2.32,9.21,9.21,0,0,1,4-.94Zm.88-4.34a9.26,9.26,0,0,1,4,.94,7.23,7.23,0,0,1,2.61,2.32,9.3,9.3,0,0,1,1.42,3.37,19.36,19.36,0,0,1,.42,4.14v11a19.06,19.06,0,0,1-.42,4.08,9.41,9.41,0,0,1-1.41,3.36,7.21,7.21,0,0,1-2.61,2.34,9,9,0,0,1-4,1V69.76a2.82,2.82,0,0,0,1.49-.58A3.27,3.27,0,0,0,57.82,68a5.27,5.27,0,0,0,.43-1.57,12.51,12.51,0,0,0,.12-1.71V51a12.51,12.51,0,0,0-.12-1.71,5.59,5.59,0,0,0-.43-1.57,3.44,3.44,0,0,0-.9-1.19,2.64,2.64,0,0,0-1.47-.59Z"
    transform="translate(-46.12 -28.47)" fill="#ff931e" />
  <path d="M74.7,74.1a7.86,7.86,0,0,1-3.46-.92,7.75,7.75,0,0,1-2.45-2.09,9.62,9.62,0,0,1-1.5-2.9,14,14,0,0,1-.64-3.36l5.57-1.12q0,1,.15,2a9.57,9.57,0,0,0,.39,1.82A4.45,4.45,0,0,0,73.5,69a2.18,2.18,0,0,0,1.2.79ZM72.61,59l-1.27-1.2c-.58-.52-1.16-1-1.71-1.6a11.36,11.36,0,0,1-1.5-1.81,8.86,8.86,0,0,1-1-2.19,8.77,8.77,0,0,1-.4-2.71,8.46,8.46,0,0,1,.57-3.18,6.93,6.93,0,0,1,1.59-2.43,7.35,7.35,0,0,1,2.46-1.61,9.88,9.88,0,0,1,3.17-.69v4.27a2.23,2.23,0,0,0-1,.32,2.63,2.63,0,0,0-.73.68,2.84,2.84,0,0,0-.43.93,4.44,4.44,0,0,0-.14,1.11,5.28,5.28,0,0,0,.2,1.47,5.33,5.33,0,0,0,.57,1.29,7.52,7.52,0,0,0,.84,1.13,12.65,12.65,0,0,0,1,1l.67.62.88.82ZM77,55.89l.65.58c.76.7,1.48,1.42,2.15,2.15A15,15,0,0,1,81.53,61a11.51,11.51,0,0,1,1.18,2.65,10.39,10.39,0,0,1,.44,3.13,7.22,7.22,0,0,1-.59,3A6.88,6.88,0,0,1,80.93,72a7.63,7.63,0,0,1-2.41,1.51,8.7,8.7,0,0,1-2.94.59V69.83a2.5,2.5,0,0,0,1-.27,2.09,2.09,0,0,0,.68-.61,2.62,2.62,0,0,0,.37-.89,4.69,4.69,0,0,0,.12-1.1,5.64,5.64,0,0,0-.33-1.91,8.19,8.19,0,0,0-.86-1.76,11.75,11.75,0,0,0-1.22-1.61c-.46-.51-.93-1-1.41-1.43l-.7-.65ZM75.35,41.58a7.82,7.82,0,0,1,3,.64,7.58,7.58,0,0,1,2.4,1.64,7.74,7.74,0,0,1,1.62,2.46,8.54,8.54,0,0,1,.68,3V50l-5.64.87c0-.16,0-.33,0-.51a4.7,4.7,0,0,0,0-.54,7.68,7.68,0,0,0-.16-1.23,5.41,5.41,0,0,0-.36-1.18,3.25,3.25,0,0,0-.62-1,2.13,2.13,0,0,0-1-.56Z"
    transform="translate(-46.12 -28.47)" fill="#ff931e" />
  <path d="M93.77,73.5H89.22L84.65,42.18h4.8l2,16.36Zm-1.44-15,2.5-16.34h4.41l2.48,16.38,2.33,14.94H100l-2.93-22L94.39,71.79Zm10.32,0,2-16.38h4.8L104.92,73.5Z"
    transform="translate(-46.12 -28.47)" fill="#ff931e" />
  <path d="M118.22,53.55l-3.48,20h-5.36L116,42.18h4.25Zm3-11.37,6.65,31.32h-5.5l-1.36-7H116.9l.48-3.26h3.2l-1.51-9.31Z"
    transform="translate(-46.12 -28.47)" fill="#ff931e" />
  <path d="M130.32,73.5V42.18h5.55V73.5Zm6.43-3.89h5.91V73.5h-5.91Z" transform="translate(-46.12 -28.47)" fill="#ff931e" />
  <path d="M145,73.5V42.18h5.55V73.5Zm6.43-4h.16a11.41,11.41,0,0,0,2.13-.16,2.82,2.82,0,0,0,1.33-.59,2.28,2.28,0,0,0,.7-1.14,7.13,7.13,0,0,0,.2-1.83V49.56a4.33,4.33,0,0,0-.25-1.58,2.3,2.3,0,0,0-.77-1.06,3.54,3.54,0,0,0-1.33-.59,9,9,0,0,0-1.92-.18h-.25v-4h.21a16.2,16.2,0,0,1,4.87.61,6.77,6.77,0,0,1,3,1.86,6.86,6.86,0,0,1,1.54,3.11,19.5,19.5,0,0,1,.43,4.38V63a30.53,30.53,0,0,1-.15,3.15,11.89,11.89,0,0,1-.55,2.62,6.9,6.9,0,0,1-1.11,2.06,5.91,5.91,0,0,1-1.8,1.5,9.15,9.15,0,0,1-2.65.91,18.76,18.76,0,0,1-3.67.31h-.16Z"
    transform="translate(-46.12 -28.47)" fill="#ff931e" />
  <path d="M173.24,45.94a2.61,2.61,0,0,0-1.46.59,3.34,3.34,0,0,0-.88,1.2,5.37,5.37,0,0,0-.44,1.57,12.25,12.25,0,0,0-.12,1.7V64.71a12.25,12.25,0,0,0,.12,1.7,5.43,5.43,0,0,0,.43,1.56,3.31,3.31,0,0,0,.88,1.2,2.75,2.75,0,0,0,1.47.59v4.32a9.14,9.14,0,0,1-4-.93,7.16,7.16,0,0,1-2.6-2.3,9.26,9.26,0,0,1-1.41-3.33,18.74,18.74,0,0,1-.42-4.06V52.37a19.48,19.48,0,0,1,.41-4.13,9.43,9.43,0,0,1,1.4-3.38,7.07,7.07,0,0,1,2.61-2.32,9.21,9.21,0,0,1,4-.94Zm.88-4.34a9.26,9.26,0,0,1,4,.94,7.23,7.23,0,0,1,2.61,2.32,9.3,9.3,0,0,1,1.42,3.37,19.36,19.36,0,0,1,.42,4.14v11a19.06,19.06,0,0,1-.42,4.08,9.41,9.41,0,0,1-1.41,3.36,7.21,7.21,0,0,1-2.61,2.34,9,9,0,0,1-4,1V69.76a2.82,2.82,0,0,0,1.49-.58,3.27,3.27,0,0,0,.88-1.19,5.27,5.27,0,0,0,.43-1.57,12.51,12.51,0,0,0,.12-1.71V51a12.51,12.51,0,0,0-.12-1.71,5.59,5.59,0,0,0-.43-1.57,3.44,3.44,0,0,0-.9-1.19,2.64,2.64,0,0,0-1.47-.59Z"
    transform="translate(-46.12 -28.47)" fill="#ff931e" />
  <path d="M193.37,74.1a7.86,7.86,0,0,1-3.46-.92,7.75,7.75,0,0,1-2.45-2.09,9.62,9.62,0,0,1-1.5-2.9,14,14,0,0,1-.64-3.36l5.57-1.12q0,1,.15,2a9.57,9.57,0,0,0,.39,1.82,4.45,4.45,0,0,0,.74,1.44,2.18,2.18,0,0,0,1.2.79ZM191.28,59,190,57.82c-.58-.52-1.16-1-1.71-1.6a11.36,11.36,0,0,1-1.5-1.81,8.86,8.86,0,0,1-1.05-2.19,8.77,8.77,0,0,1-.4-2.71,8.46,8.46,0,0,1,.57-3.18,6.93,6.93,0,0,1,1.59-2.43A7.35,7.35,0,0,1,190,42.29a9.88,9.88,0,0,1,3.17-.69v4.27a2.23,2.23,0,0,0-1,.32,2.5,2.5,0,0,0-.73.68,2.84,2.84,0,0,0-.43.93,4.44,4.44,0,0,0-.14,1.11,5.28,5.28,0,0,0,.2,1.47,5.72,5.72,0,0,0,.56,1.29,8.35,8.35,0,0,0,.85,1.13,12.65,12.65,0,0,0,1,1l.67.62.88.82Zm4.36-3.13.65.58c.76.7,1.48,1.42,2.15,2.15A15,15,0,0,1,200.2,61a11.51,11.51,0,0,1,1.18,2.65,10.39,10.39,0,0,1,.44,3.13,7.22,7.22,0,0,1-.59,3A6.88,6.88,0,0,1,199.6,72a7.63,7.63,0,0,1-2.41,1.51,8.7,8.7,0,0,1-2.94.59V69.83a2.5,2.5,0,0,0,1-.27,2.09,2.09,0,0,0,.68-.61,2.62,2.62,0,0,0,.37-.89,4.69,4.69,0,0,0,.12-1.1,5.64,5.64,0,0,0-.33-1.91,8.19,8.19,0,0,0-.86-1.76A11.75,11.75,0,0,0,194,61.68c-.46-.51-.93-1-1.41-1.43l-.7-.65ZM194,41.58a7.82,7.82,0,0,1,3,.64,7.58,7.58,0,0,1,2.4,1.64A7.74,7.74,0,0,1,201,46.32a8.54,8.54,0,0,1,.68,3V50l-5.64.87c0-.16,0-.33,0-.51a4.7,4.7,0,0,0,0-.54,7.68,7.68,0,0,0-.16-1.23,5.41,5.41,0,0,0-.36-1.18,3.25,3.25,0,0,0-.62-1,2.13,2.13,0,0,0-.95-.56Z"
    transform="translate(-46.12 -28.47)" fill="#ff931e" />
  <path d="M65.5,31.47q58.36,1.06,116.75.4a1.5,1.5,0,0,0,0-3q-58.38.68-116.75-.4c-1.93,0-1.93,3,0,3Z" transform="translate(-46.12 -28.47)"
    fill="#f15a24" />
  <path d="M65.25,87H182.5a1.5,1.5,0,0,0,0-3H65.25a1.5,1.5,0,0,0,0,3Z" transform="translate(-46.12 -28.47)" fill="#f15a24" />
  <path d="M87.22,106.29A3.63,3.63,0,0,1,86,106.1a2.29,2.29,0,0,1-1.42-1.34,3.6,3.6,0,0,1-.3-1,7.44,7.44,0,0,1-.08-1.21v-4a8.2,8.2,0,0,1,.08-1.28,4.54,4.54,0,0,1,.3-1,2.33,2.33,0,0,1,.55-.8A2.44,2.44,0,0,1,86,94.9a3.9,3.9,0,0,1,1.24-.18,2.65,2.65,0,0,1,2.19.83A3.82,3.82,0,0,1,90.08,98v.91h-1.5v-.8c0-.18,0-.31,0-.41s0-.22,0-.37a2.27,2.27,0,0,0,0-.34,1.9,1.9,0,0,0-.07-.28.92.92,0,0,0-.11-.26,2.61,2.61,0,0,0-.17-.2.87.87,0,0,0-.23-.16,2,2,0,0,0-.31-.08,2.35,2.35,0,0,0-.4,0,1.91,1.91,0,0,0-.57.08.9.9,0,0,0-.41.22,1.4,1.4,0,0,0-.4.82,5.62,5.62,0,0,0-.06.56,6.44,6.44,0,0,0,0,.66v4.49a3.52,3.52,0,0,0,.32,1.77,1.23,1.23,0,0,0,1.14.5,1.73,1.73,0,0,0,.54-.07.8.8,0,0,0,.38-.22,1.72,1.72,0,0,0,.24-.33,1.5,1.5,0,0,0,.13-.46c0-.19,0-.37,0-.54s0-.38,0-.64V102h1.5v.84A6.75,6.75,0,0,1,90,104a3.43,3.43,0,0,1-.28,1,2.08,2.08,0,0,1-1.34,1.2A3.62,3.62,0,0,1,87.22,106.29Z"
    transform="translate(-46.12 -28.47)" fill="#b3b3b3" />
  <path d="M91.5,106.17v-8.1H93v1.16a2.94,2.94,0,0,1,.86-1,1.72,1.72,0,0,1,.94-.28H95v1.66a2.21,2.21,0,0,0-.82-.16,1.3,1.3,0,0,0-.66.17,1.83,1.83,0,0,0-.56.6v5.92Z"
    transform="translate(-46.12 -28.47)" fill="#b3b3b3" />
  <path d="M98.2,106.28a3,3,0,0,1-1.19-.2,1.5,1.5,0,0,1-.73-.63,2.77,2.77,0,0,1-.37-1,7.78,7.78,0,0,1-.11-1.4V101.2a7.09,7.09,0,0,1,.12-1.42,2.71,2.71,0,0,1,.38-1,1.53,1.53,0,0,1,.73-.62A3.41,3.41,0,0,1,99,98.05a2.12,2.12,0,0,1,.57.22,1.55,1.55,0,0,1,.42.39,2.49,2.49,0,0,1,.27.51,3.15,3.15,0,0,1,.17.66,6.48,6.48,0,0,1,.08.77c0,.25,0,.55,0,.89v.66H97.3v1.67c0,.11,0,.25,0,.43a1.37,1.37,0,0,0,.08.39,2.6,2.6,0,0,0,.15.28.55.55,0,0,0,.25.2,1,1,0,0,0,.37.06.66.66,0,0,0,.66-.34,2.15,2.15,0,0,0,.18-1v-.49h1.46v.32Q100.48,106.28,98.2,106.28Zm-.9-5H99v-.73c0-.21,0-.39,0-.54a2,2,0,0,0-.07-.42.73.73,0,0,0-.14-.32.65.65,0,0,0-.24-.19,1,1,0,0,0-.37-.07.7.7,0,0,0-.71.39,4.17,4.17,0,0,0-.17,1.45Z"
    transform="translate(-46.12 -28.47)" fill="#b3b3b3" />
  <path d="M103.3,106.28a1.44,1.44,0,0,1-1.16-.57,2,2,0,0,1-.47-1.31,2.68,2.68,0,0,1,.19-1,3.24,3.24,0,0,1,.4-.75,2.22,2.22,0,0,1,.73-.6,7.28,7.28,0,0,1,.81-.44l1-.43.06,0v-.59a2.88,2.88,0,0,0-.16-1.11.67.67,0,0,0-.66-.34c-.56,0-.84.39-.84,1.15v.41l-1.49-.06c0-.08,0-.18,0-.3a2.46,2.46,0,0,1,.67-1.76,2.52,2.52,0,0,1,1.75-.56,2.08,2.08,0,0,1,1.69.64,3.07,3.07,0,0,1,.52,1.93v3.7a14.92,14.92,0,0,0,.13,1.94h-1.37a11.24,11.24,0,0,1-.19-1.2,2.12,2.12,0,0,1-.59.93A1.46,1.46,0,0,1,103.3,106.28Zm.59-1.3a.87.87,0,0,0,.56-.22,1.73,1.73,0,0,0,.42-.45V102a8.27,8.27,0,0,0-1,.66,1.6,1.6,0,0,0-.66,1.27,1.3,1.3,0,0,0,.19.76A.6.6,0,0,0,103.89,105Z"
    transform="translate(-46.12 -28.47)" fill="#b3b3b3" />
  <path d="M109.84,106.28a1.65,1.65,0,0,1-1.33-.48,2.3,2.3,0,0,1-.42-1.45V99.07h-.85v-1h.85V95.71h1.49v2.36h1.3v1h-1.3v5.18a1.15,1.15,0,0,0,.16.68.71.71,0,0,0,.58.2,3.06,3.06,0,0,0,.56,0v1.11A7.87,7.87,0,0,1,109.84,106.28Z"
    transform="translate(-46.12 -28.47)" fill="#b3b3b3" />
  <path d="M112.09,96.88V95.3h1.51v1.58Zm0,9.29v-8.1h1.5v8.1Z" transform="translate(-46.12 -28.47)" fill="#b3b3b3" />
  <path d="M116.25,106.17l-1.6-8.1h1.5l1,6.52,1-6.52h1.45l-1.53,8.1Z" transform="translate(-46.12 -28.47)" fill="#b3b3b3" />
  <path d="M122.83,106.28a3,3,0,0,1-1.19-.2,1.5,1.5,0,0,1-.73-.63,2.77,2.77,0,0,1-.37-1,7.78,7.78,0,0,1-.11-1.4V101.2a7.09,7.09,0,0,1,.12-1.42,2.71,2.71,0,0,1,.38-1,1.53,1.53,0,0,1,.73-.62,3,3,0,0,1,1.16-.2,2.88,2.88,0,0,1,.76.09,2.07,2.07,0,0,1,.58.22,1.55,1.55,0,0,1,.42.39,2.49,2.49,0,0,1,.27.51,3.15,3.15,0,0,1,.17.66,6.48,6.48,0,0,1,.08.77c0,.25,0,.55,0,.89v.66h-3.19v1.67c0,.11,0,.25,0,.43a1.37,1.37,0,0,0,.08.39,2.6,2.6,0,0,0,.15.28.55.55,0,0,0,.25.2,1,1,0,0,0,.37.06.66.66,0,0,0,.66-.34,2.15,2.15,0,0,0,.18-1v-.49h1.46v.32Q125.11,106.28,122.83,106.28Zm-.9-5h1.72v-.73c0-.21,0-.39,0-.54a2,2,0,0,0-.07-.42.73.73,0,0,0-.14-.32.65.65,0,0,0-.24-.19,1,1,0,0,0-.37-.07.7.7,0,0,0-.71.39,4.17,4.17,0,0,0-.17,1.45Z"
    transform="translate(-46.12 -28.47)" fill="#b3b3b3" />
  <path d="M129.18,106.17l2.42-11.34h1.52l2.42,11.34H134l-.52-2.86h-2.31l-.54,2.86Zm2.24-4h1.89l-.95-5.12Z" transform="translate(-46.12 -28.47)"
    fill="#b3b3b3" />
  <path d="M139.08,108.68l-.77,0-.7-.06a3.05,3.05,0,0,1-.62-.13,2.09,2.09,0,0,1-.48-.22,1,1,0,0,1-.33-.34,1.1,1.1,0,0,1-.11-.49,1.77,1.77,0,0,1,.34-1.09,2.53,2.53,0,0,1,.83-.73,1.19,1.19,0,0,1-.58-.35.76.76,0,0,1-.2-.53,1.3,1.3,0,0,1,.21-.73,4,4,0,0,1,.69-.73,2.11,2.11,0,0,1-.71-.93,4,4,0,0,1-.23-1.49A3.35,3.35,0,0,1,137,98.7a2,2,0,0,1,1.69-.74,1.68,1.68,0,0,1,1.67.89,2.79,2.79,0,0,1,.42-.4,2.83,2.83,0,0,1,.67-.43l.24-.1.37,1a6.12,6.12,0,0,0-.77.24,2.7,2.7,0,0,0-.61.27,3.05,3.05,0,0,1,.18.69,5.32,5.32,0,0,1,0,1.94,2.76,2.76,0,0,1-.36.88,1.6,1.6,0,0,1-.7.58,2.49,2.49,0,0,1-1.07.2,3,3,0,0,1-.41,0l-.35-.06a.47.47,0,0,0-.06.1.76.76,0,0,0-.08.13.66.66,0,0,1-.06.12,1.21,1.21,0,0,0,0,.14.69.69,0,0,0,0,.13.25.25,0,0,0,.16.24,1.59,1.59,0,0,0,.52.12l.64.06.61.05a1.81,1.81,0,0,1,1.88,2,1.88,1.88,0,0,1-.58,1.56A2.88,2.88,0,0,1,139.08,108.68Zm0-1.19a1.89,1.89,0,0,0,1-.19.68.68,0,0,0,.31-.61.69.69,0,0,0-.24-.57,1.7,1.7,0,0,0-.87-.25l-1.28-.11a2.64,2.64,0,0,0-.4.45,1,1,0,0,0-.19.61.56.56,0,0,0,.11.38,1,1,0,0,0,.5.22A6.09,6.09,0,0,0,139.05,107.49Zm-.36-4.86a.78.78,0,0,0,.79-.42,3.74,3.74,0,0,0,.18-1.37c0-.25,0-.46,0-.63a4.33,4.33,0,0,0-.08-.5,1.17,1.17,0,0,0-.16-.39.81.81,0,0,0-.28-.23.87.87,0,0,0-.42-.09.79.79,0,0,0-.79.44,3.66,3.66,0,0,0-.2,1.4c0,.23,0,.42,0,.58a3.85,3.85,0,0,0,.08.49,1.42,1.42,0,0,0,.17.39.81.81,0,0,0,.28.24A.93.93,0,0,0,138.69,102.63Z"
    transform="translate(-46.12 -28.47)" fill="#b3b3b3" />
  <path d="M144.89,106.28a2.91,2.91,0,0,1-1.18-.2,1.5,1.5,0,0,1-.73-.63,2.77,2.77,0,0,1-.37-1,7.78,7.78,0,0,1-.11-1.4V101.2a8,8,0,0,1,.11-1.42,2.9,2.9,0,0,1,.38-1,1.6,1.6,0,0,1,.74-.62,3,3,0,0,1,1.16-.2,2.93,2.93,0,0,1,.76.09,2.19,2.19,0,0,1,.58.22,1.38,1.38,0,0,1,.41.39,2.12,2.12,0,0,1,.28.51,3.15,3.15,0,0,1,.17.66,6.48,6.48,0,0,1,.08.77c0,.25,0,.55,0,.89v.66H144v1.67a4,4,0,0,0,0,.43,1.24,1.24,0,0,0,.23.67.5.5,0,0,0,.25.2,1,1,0,0,0,.37.06.67.67,0,0,0,.66-.34,2.31,2.31,0,0,0,.17-1v-.49h1.47v.32C147.18,105.41,146.41,106.28,144.89,106.28Zm-.89-5h1.71v-.73c0-.21,0-.39,0-.54s0-.28-.07-.42a.87.87,0,0,0-.14-.32.62.62,0,0,0-.25-.19,1,1,0,0,0-.37-.07.68.68,0,0,0-.7.39,3.94,3.94,0,0,0-.17,1.45Z"
    transform="translate(-46.12 -28.47)" fill="#b3b3b3" />
  <path d="M148.54,106.17v-8.1H150v.8a2.91,2.91,0,0,1,2-.91,1.15,1.15,0,0,1,.59.15,1,1,0,0,1,.38.39,2.47,2.47,0,0,1,.18.52,2.84,2.84,0,0,1,.06.6v6.55h-1.5v-6.11a1.37,1.37,0,0,0-.14-.69.52.52,0,0,0-.5-.23,1.78,1.78,0,0,0-1.05.5v6.53Z"
    transform="translate(-46.12 -28.47)" fill="#b3b3b3" />
  <path d="M156.9,106.28a3.07,3.07,0,0,1-1-.15,1.87,1.87,0,0,1-.68-.42,1.82,1.82,0,0,1-.41-.68,4.91,4.91,0,0,1-.2-.88,8.6,8.6,0,0,1-.06-1.09v-1.87a8.65,8.65,0,0,1,.1-1.37,3.06,3.06,0,0,1,.35-1,1.52,1.52,0,0,1,.72-.65A2.78,2.78,0,0,1,156.9,98a3.35,3.35,0,0,1,1.09.16,1.45,1.45,0,0,1,.68.49,2.08,2.08,0,0,1,.34.79,5,5,0,0,1,.1,1.11V101h-1.35v-.49a2.47,2.47,0,0,0-.18-1.12.85.85,0,0,0-1.37.06,4.18,4.18,0,0,0-.17,1.44v2.55a3.32,3.32,0,0,0,.19,1.39.72.72,0,0,0,.7.36.81.81,0,0,0,.37-.08.52.52,0,0,0,.25-.18.83.83,0,0,0,.13-.3,2.71,2.71,0,0,0,.06-.38c0-.13,0-.29,0-.47v-.66h1.35v.56a5.13,5.13,0,0,1-.1,1.11,2.46,2.46,0,0,1-.35.81,1.43,1.43,0,0,1-.68.52A2.85,2.85,0,0,1,156.9,106.28Z"
    transform="translate(-46.12 -28.47)" fill="#b3b3b3" />
  <path d="M160.31,108.19v-1.13a2.61,2.61,0,0,0,1.28-.2c.18-.12.23-.39.15-.78-.14-.57-.22-.94-.26-1.12l-.81-3.44c-.38-1.61-.66-2.76-.82-3.45h1.52l1.08,6.05,1.06-6.05H165l-1.94,8.54a1.74,1.74,0,0,1-.81,1.22,3.6,3.6,0,0,1-1.77.36Z"
    transform="translate(-46.12 -28.47)" fill="#b3b3b3" />
</svg>
