<svg xmlns="http://www.w3.org/2000/svg" xmlns:xlink="http://www.w3.org/1999/xlink"><symbol id="icon-clock" viewBox="0 0 141.67 139.54">
  <path d="M419.83,710.46V690a1,1,0,0,0-2,0v20.46l1,0Z" transform="translate(-348 -689)" fill="#fff"/>
  <path d="M393.77,717.44c.57-.35,1.15-.68,1.73-1l-10.24-17.7a1,1,0,0,0-1.36-.36,1,1,0,0,0-.37,1.36Z" transform="translate(-348 -689)" fill="#fff"/>
  <path d="M358.5,723.73a1,1,0,0,0,.37,1.36l17.68,10.27c.32-.58.65-1.16,1-1.73l-17.68-10.27A1,1,0,0,0,358.5,723.73Z" transform="translate(-348 -689)" fill="#fff"/>
  <path d="M454.41,697.52a1,1,0,0,0-1.37.36l-10.8,18.6c.58.33,1.16.66,1.73,1l10.8-18.59A1,1,0,0,0,454.41,697.52Z" transform="translate(-348 -689)" fill="#fff"/>
  <path d="M479.78,724.67a1,1,0,0,0,.37-1.37,1,1,0,0,0-1.37-.36l-18.61,10.77c.34.56.67,1.14,1,1.73Z" transform="translate(-348 -689)" fill="#fff"/>
  <path d="M370.5,758.77c0-.33,0-.67,0-1H349a1,1,0,0,0,0,2h21.53C370.52,759.44,370.5,759.11,370.5,758.77Z" transform="translate(-348 -689)" fill="#fff"/>
  <path d="M488.67,757.77H467.14c0,.33,0,.67,0,1s0,.67,0,1h21.53a1,1,0,1,0,0-2Z" transform="translate(-348 -689)" fill="#fff"/>
  <path d="M478.8,792.45l-17.68-10.27c-.32.58-.65,1.16-1,1.73l17.68,10.27a1,1,0,1,0,1-1.73Z" transform="translate(-348 -689)" fill="#fff"/>
  <path d="M357.88,792.87a1,1,0,0,0,.51,1.87.93.93,0,0,0,.5-.14l18.61-10.76c-.35-.57-.67-1.15-1-1.74Z" transform="translate(-348 -689)" fill="#fff"/>
  <path d="M443.9,800.1c-.57.35-1.15.68-1.73,1l10.23,17.7a1,1,0,0,0,.87.5.93.93,0,0,0,.5-.14,1,1,0,0,0,.36-1.36Z" transform="translate(-348 -689)" fill="#fff"/>
  <path d="M382.89,818.65a1,1,0,0,0,.37,1.37,1,1,0,0,0,.5.14,1,1,0,0,0,.86-.5l10.81-18.6c-.59-.33-1.17-.65-1.73-1Z" transform="translate(-348 -689)" fill="#fff"/>
  <path d="M417.83,807.08v20.46a1,1,0,0,0,2,0V807.08l-1,0Z" transform="translate(-348 -689)" fill="#fff"/>
  <path d="M452.75,740.89a1.5,1.5,0,0,0-1.51-2.6l-28.43,16.45h0a5.65,5.65,0,0,0-7.95,0l-20.34-11.82a1.5,1.5,0,0,0-1.51,2.6l20.35,11.82a5.66,5.66,0,1,0,11.14,1.44,5.55,5.55,0,0,0-.19-1.43Zm-29.41,14.46,0-.08Zm.4.59,0,0Zm-9.78-.05,0,0Zm.42-.62-.05.06Zm4.45,6.17a2.67,2.67,0,1,1,2.67-2.67A2.67,2.67,0,0,1,418.83,761.44Z" transform="translate(-348 -689)" fill="#fff"/>
</symbol><symbol id="icon-facebook" viewBox="0 0 24 24">
  <path d="M9 8h-3v4h3v12h5v-12h3.642l.358-4h-4v-1.667c0-.955.192-1.333 1.115-1.333h2.885v-5h-3.808c-3.596 0-5.192 1.583-5.192 4.615v3.385z" fill="#f7f4f1"/>
</symbol><symbol id="icon-instagram" viewBox="0 0 24 24">
  <path d="M12 2.163c3.204 0 3.584.012 4.85.07 3.252.148 4.771 1.691 4.919 4.919.058 1.265.069 1.645.069 4.849 0 3.205-.012 3.584-.069 4.849-.149 3.225-1.664 4.771-4.919 4.919-1.266.058-1.644.07-4.85.07-3.204 0-3.584-.012-4.849-.07-3.26-.149-4.771-1.699-4.919-4.92-.058-1.265-.07-1.644-.07-4.849 0-3.204.013-3.583.07-4.849.149-3.227 1.664-4.771 4.919-4.919 1.266-.057 1.645-.069 4.849-.069zm0-2.163c-3.259 0-3.667.014-4.947.072-4.358.2-6.78 2.618-6.98 6.98-.059 1.281-.073 1.689-.073 4.948 0 3.259.014 3.668.072 4.948.2 4.358 2.618 6.78 6.98 6.98 1.281.058 1.689.072 4.948.072 3.259 0 3.668-.014 4.948-.072 4.354-.2 6.782-2.618 6.979-6.98.059-1.28.073-1.689.073-4.948 0-3.259-.014-3.667-.072-4.947-.196-4.354-2.617-6.78-6.979-6.98-1.281-.059-1.69-.073-4.949-.073zm0 5.838c-3.403 0-6.162 2.759-6.162 6.162s2.759 6.163 6.162 6.163 6.162-2.759 6.162-6.163c0-3.403-2.759-6.162-6.162-6.162zm0 10.162c-2.209 0-4-1.79-4-4 0-2.209 1.791-4 4-4s4 1.791 4 4c0 2.21-1.791 4-4 4zm6.406-11.845c-.796 0-1.441.645-1.441 1.44s.645 1.44 1.441 1.44c.795 0 1.439-.645 1.439-1.44s-.644-1.44-1.439-1.44z" fill="#f7f4f1"/>
</symbol><symbol id="icon-shopping-cart" viewBox="0 0 24 24">
  <path d="M10 19.5c0 .829-.672 1.5-1.5 1.5s-1.5-.671-1.5-1.5c0-.828.672-1.5 1.5-1.5s1.5.672 1.5 1.5zm3.5-1.5c-.828 0-1.5.671-1.5 1.5s.672 1.5 1.5 1.5 1.5-.671 1.5-1.5c0-.828-.672-1.5-1.5-1.5zm1.336-5l1.977-7h-16.813l2.938 7h11.898zm4.969-10l-3.432 12h-12.597l.839 2h13.239l3.474-12h1.929l.743-2h-4.195z" fill="#826550"/>
</symbol><symbol id="icon-twitter" viewBox="0 0 24 24">
  <path d="M24 4.557c-.883.392-1.832.656-2.828.775 1.017-.609 1.798-1.574 2.165-2.724-.951.564-2.005.974-3.127 1.195-.897-.957-2.178-1.555-3.594-1.555-3.179 0-5.515 2.966-4.797 6.045-4.091-.205-7.719-2.165-10.148-5.144-1.29 2.213-.669 5.108 1.523 6.574-.806-.026-1.566-.247-2.229-.616-.054 2.281 1.581 4.415 3.949 4.89-.693.188-1.452.232-2.224.084.626 1.956 2.444 3.379 4.6 3.419-2.07 1.623-4.678 2.348-7.29 2.04 2.179 1.397 4.768 2.212 7.548 2.212 9.142 0 14.307-7.721 13.995-14.646.962-.695 1.797-1.562 2.457-2.549z" fill="#f7f4f1"/>
</symbol><symbol id="login-icon" viewBox="0 0 16 16">
  <polygon points="0 7 7.01 7 7.01 4.06 10.96 8.01 7.01 11.91 7.01 9.06 0 9.02 0 7"/>
  <polygon points="7.01 0 7.01 2 14.03 2 14.03 13.99 7.01 13.99 7.01 16 16 16 16 0 7.01 0"/>
</symbol></svg>