<svg xmlns="http://www.w3.org/2000/svg" viewBox="0 0 94.94 94.16"><path d="M90.28 28.39a47.39 47.39 0 0 0-8.5-13.1l-2 3.78a43.15 43.15 0 0 1 6.42 10c1.36-.23 2.72-.45 4.08-.68zM90 43.56c.09 1.17.15 2.34.15 3.52a43.08 43.08 0 0 1-43.07 43.08q-1.17 0-2.34-.06a7.67 7.67 0 0 1 .26 1.84 6.62 6.62 0 0 1-.4 2.15c.83 0 1.67.07 2.52.07a47.13 47.13 0 0 0 47.04-47.08 48.16 48.16 0 0 0-.41-6.16A37.6 37.6 0 0 1 90 43.56zM4 47.08A43.08 43.08 0 0 1 68.65 9.79c1.08-.86 2.21-1.73 3.36-2.62a47.07 47.07 0 1 0-42.35 83.64 18.38 18.38 0 0 1-.57-4.59A43.06 43.06 0 0 1 4 47.08z" fill="#826550"/><path d="M38.77 84.91c7.74-2.72 16.31-9.67 14.54-19.83-.9-5.14-4.48-5-7.27-9.25 14.44-12 24.21-28.66 33-46.26h-2c-7.45 5.66-21.91 17-28.42 26.43-2.6 3.78-4.59 9.31-7.27 13.88-4.54 7.75-15.12 21.23-6.61 31.06-1.38 4.62-1.2 12.39 4 12.56 3.26-1.73-1.36-4.61.03-8.59zm8.31-38.83a2.59 2.59 0 1 1-2.58 2.58 2.59 2.59 0 0 1 2.58-2.58zM36.79 75c-1.86-9 7-16.95 11.89-9.25.26 7.41-6.18 15.76-11.89 9.25z" fill="#826550"/><path d="M56 51.2c14-5.2 30.58-7.75 39-18.5-9.41 1.38-18.12 3.47-27.75 4.62C65.05 43.56 60.16 47 56 51.2zM12.34 40c-4.23 12.25 8.42 16 21.8 13.88 3.79-4.82 5.85-10 2-15.87-4.91-7.49-20.92-6.4-23.8 1.99zm5.28 7.27C12.5 36.4 30.51 36.17 32.16 42c2.18 7.58-9.1 8-14.54 5.24z" fill="#826550"/></svg>