<svg xmlns="http://www.w3.org/2000/svg" viewBox="0 0 94.16 88.62"><path d="M87.19 22.42q-.85 2.61-1.68 5.23a43 43 0 0 1-13 54.16 13 13 0 0 1 3.14 2.67 47.08 47.08 0 0 0 11.54-62.06zM9.52 70.34h1.34A43.06 43.06 0 0 1 66 8.38a22.89 22.89 0 0 1 2.44-3.26A47.08 47.08 0 0 0 6.23 70.48c1.13-.11 2.25-.14 3.29-.14z" fill="#826550"/><path d="M53.45 82c.44-6.14-.87-14 .66-19.07 4.53-.08 9.56.35 13.15-.66 8.18-14.84 12-34 18.42-50.64V9C85 6 81.93 5.3 79.1 4.4h-.65c-10.6 3.43-12 16.1-14.47 27.62-15.8-4.14-32.3-.06-32.89 15.13-4.52.07-8 1.22-9.86 3.94-.57 6.75 1.57 10.75 6.58 11.91a22.16 22.16 0 0 1-7.24 12.49c-6.4.62-15.63-1.6-19.07 2v2.63c3.15 3.86 12.85 1.18 19.07 2 6.59-4.01 8.43-12.67 11.84-19.81 4.67.37 10.86-.78 14.47.66V82.7c-7.83.5-15.45 1.21-19.07 5.92h44.72C69.27 83.33 60.05 84 53.45 82zM37.67 47.19C38.35 35.48 53 35.5 63.32 38.64c.1 4.72-.52 10.16 1.31 13.15-7.04-.85-17.07-4.4-26.96-4.6z" fill="#826550"/></svg>