<svg xmlns="http://www.w3.org/2000/svg" viewBox="0 0 94.16 91.99"><path d="M47.08 8.17A9.11 9.11 0 1 1 38 17.28a9.11 9.11 0 0 1 9.08-9.11z" fill="#826550"/><path d="M67.46 26.38H26.7a2.82 2.82 0 0 0-2.81 2.82v4.47a2.83 2.83 0 0 0 2.81 2.82h.83v45.39h-.83a2.82 2.82 0 0 0-2.81 2.82v4.47A2.83 2.83 0 0 0 26.7 92h40.76a2.83 2.83 0 0 0 2.82-2.82V84.7a2.83 2.83 0 0 0-2.82-2.82h-.83V36.49h.83a2.83 2.83 0 0 0 2.82-2.82V29.2a2.83 2.83 0 0 0-2.82-2.82zm-33.8 10.11h13.2l-13.2 13.2zM60.5 81.88H47l13.5-13.47zm0-28.71L33.66 80V64.93L60.5 38.09z" fill="#826550"/><path d="M47.08 0a47.08 47.08 0 0 0-28.19 84.79v-.09a7.87 7.87 0 0 1 1.17-4.1 43.08 43.08 0 1 1 54 0 7.79 7.79 0 0 1 1.18 4.1v.09A47.09 47.09 0 0 0 47.08 0z" fill="#826550"/></svg>