<svg xmlns="http://www.w3.org/2000/svg" width="170" height="36" viewBox="0 0 103.8 21.69"><path d="M5.63 2.9a1.85 1.85 0 0 0-1 .39 2.29 2.29 0 0 0-.59.81 3.87 3.87 0 0 0-.29 1 8.47 8.47 0 0 0-.08 1.13v9.14a8.71 8.71 0 0 0 .08 1.13 3.79 3.79 0 0 0 .28 1 2.28 2.28 0 0 0 .6.8 1.85 1.85 0 0 0 1 .39v2.88a6.06 6.06 0 0 1-2.71-.53 4.67 4.67 0 0 1-1.7-1.53 6.18 6.18 0 0 1-.94-2.22 12.23 12.23 0 0 1-.28-2.7v-7.4a13.36 13.36 0 0 1 .27-2.75 6.46 6.46 0 0 1 .94-2.26A4.65 4.65 0 0 1 2.92.64 6.19 6.19 0 0 1 5.6.01zM6.22.01a6.24 6.24 0 0 1 2.69.63 4.92 4.92 0 0 1 1.75 1.54 6.49 6.49 0 0 1 .94 2.25 12.78 12.78 0 0 1 .32 2.76v7.31a12.47 12.47 0 0 1-.28 2.72 6.49 6.49 0 0 1-.94 2.25 4.92 4.92 0 0 1-1.78 1.55 5.85 5.85 0 0 1-2.7.64v-2.88a1.85 1.85 0 0 0 1-.39 2.13 2.13 0 0 0 .59-.79 3.68 3.68 0 0 0 .29-1.05 8.71 8.71 0 0 0 .08-1.13V6.28a8.74 8.74 0 0 0-.09-1.17 3.87 3.87 0 0 0-.29-1 2.41 2.41 0 0 0-.6-.8 1.85 1.85 0 0 0-1-.39zm12.83 21.66a5.32 5.32 0 0 1-2.31-.6 5.21 5.21 0 0 1-1.62-1.4 6.23 6.23 0 0 1-1-1.93 9.34 9.34 0 0 1-.42-2.24l3.71-.75c0 .44 0 .88.1 1.32a6.25 6.25 0 0 0 .26 1.22 2.94 2.94 0 0 0 .49 1 1.46 1.46 0 0 0 .8.53zm-1.39-10.05l-.85-.8c-.39-.34-.77-.7-1.14-1.06a7.69 7.69 0 0 1-1-1.21 5.82 5.82 0 0 1-.7-1.44 6 6 0 0 1-.26-1.81 5.63 5.63 0 0 1 .37-2.11 4.89 4.89 0 0 1 1.06-1.63A5.06 5.06 0 0 1 16.79.49a6.39 6.39 0 0 1 2.13-.48v2.84a1.65 1.65 0 0 0-.68.22 1.76 1.76 0 0 0-.49.45 2.06 2.06 0 0 0-.28.62 2.59 2.59 0 0 0-.1.74 3.53 3.53 0 0 0 .14 1 3.59 3.59 0 0 0 .37.85 4.57 4.57 0 0 0 .57.76 7.4 7.4 0 0 0 .69.68l.45.42.58.54zm2.9-2.09l.44.39c.51.47 1 .95 1.43 1.44a9.76 9.76 0 0 1 1.18 1.55 8.3 8.3 0 0 1 .79 1.77 7.21 7.21 0 0 1 .29 2.08 4.72 4.72 0 0 1-1.48 3.53 5.2 5.2 0 0 1-1.61 1 6.06 6.06 0 0 1-2 .4v-2.86a1.65 1.65 0 0 0 .67-.18 1.19 1.19 0 0 0 .45-.41 1.86 1.86 0 0 0 .26-.59 3.35 3.35 0 0 0 .07-.73 3.89 3.89 0 0 0-.21-1.27 5.87 5.87 0 0 0-.58-1.18 8.35 8.35 0 0 0-.81-1.07c-.31-.34-.62-.66-.94-1l-.47-.43zM19.49 0a5.07 5.07 0 0 1 3.59 1.52 5.12 5.12 0 0 1 1.09 1.59 5.73 5.73 0 0 1 .45 2v.43l-3.76.59v-.71a6.1 6.1 0 0 0-.1-.82 4.45 4.45 0 0 0-.24-.78 2.37 2.37 0 0 0-.42-.64 1.43 1.43 0 0 0-.63-.37zm12.28 21.28h-3l-3-20.89h3.15l1.33 10.91zm-1-10L32.43.38h2.94l1.65 10.93 1.56 10h-2.66l-2-14.7-1.74 13.5zm6.88 0L38.98.35h3.2l-3 20.89zm10.42-3.3l-2.32 13.3h-3.58L46.6.39h2.84zm2-7.59l4.43 20.89h-3.67l-.9-4.68h-2.72l.32-2.17h2.13l-1-6.21zm6.06 20.89V.39h3.7v20.89zm4.29-2.59h3.94v2.59h-3.94zm5.5 2.59V.39h3.7v20.89zm4.29-2.64h.1a7.87 7.87 0 0 0 1.42-.11 2 2 0 0 0 .89-.39 1.55 1.55 0 0 0 .47-.77 4.56 4.56 0 0 0 .13-1.21V5.32a3 3 0 0 0-.16-1.06 1.52 1.52 0 0 0-.52-.7 2.21 2.21 0 0 0-.89-.39 5.37 5.37 0 0 0-1.28-.13h-.16V.39h.14A11 11 0 0 1 73.6.8a4.25 4.25 0 0 1 3.07 3.31 13.32 13.32 0 0 1 .29 2.93v7.21c0 .75 0 1.45-.1 2.09a8.06 8.06 0 0 1-.37 1.75 4.8 4.8 0 0 1-.74 1.38 3.93 3.93 0 0 1-1.2 1 6.23 6.23 0 0 1-1.77.61 12.5 12.5 0 0 1-2.45.21h-.1zM84.75 2.9a1.82 1.82 0 0 0-1 .39 2.45 2.45 0 0 0-.6.81 3.87 3.87 0 0 0-.29 1 8.47 8.47 0 0 0-.08 1.13v9.14a8.71 8.71 0 0 0 .08 1.13 3.8 3.8 0 0 0 .29 1 2.25 2.25 0 0 0 .59.8 1.85 1.85 0 0 0 1 .39v2.88a6.1 6.1 0 0 1-2.69-.62 4.83 4.83 0 0 1-1.73-1.53 6.18 6.18 0 0 1-.94-2.22 12.86 12.86 0 0 1-.28-2.7V7.1a12.69 12.69 0 0 1 .28-2.75 6.27 6.27 0 0 1 .93-2.26A4.8 4.8 0 0 1 82.05.55a6.24 6.24 0 0 1 2.69-.63zm.58-2.89a6.24 6.24 0 0 1 2.69.63 4.75 4.75 0 0 1 1.75 1.54 6.31 6.31 0 0 1 .94 2.25 12.78 12.78 0 0 1 .28 2.76v7.31a12.47 12.47 0 0 1-.28 2.72 6.48 6.48 0 0 1-.93 2.25 4.92 4.92 0 0 1-1.74 1.55 5.92 5.92 0 0 1-2.71.64v-2.88a1.85 1.85 0 0 0 1-.39 2.05 2.05 0 0 0 .6-.79 3.67 3.67 0 0 0 .28-1.05 8.71 8.71 0 0 0 .08-1.13V6.28a8.74 8.74 0 0 0-.08-1.14 3.87 3.87 0 0 0-.29-1.03 2.17 2.17 0 0 0-.6-.8 1.85 1.85 0 0 0-1-.39zm12.84 21.66a5.32 5.32 0 0 1-2.31-.6 5.25 5.25 0 0 1-1.63-1.4 6.21 6.21 0 0 1-1-1.93 9.35 9.35 0 0 1-.43-2.24l3.71-.75c0 .44 0 .88.1 1.32a6.25 6.25 0 0 0 .26 1.22 3.15 3.15 0 0 0 .49 1 1.48 1.48 0 0 0 .81.53zm-1.4-10.05l-.84-.8c-.39-.34-.77-.7-1.14-1.06a7.23 7.23 0 0 1-1-1.21 5.8 5.8 0 0 1-.7-1.46 6.12 6.12 0 0 1 .11-3.92 4.74 4.74 0 0 1 1.06-1.63A4.91 4.91 0 0 1 95.92.47a6.45 6.45 0 0 1 2.11-.46v2.84a1.57 1.57 0 0 0-1.16.67 1.86 1.86 0 0 0-.29.62 3 3 0 0 0-.09.74 3.54 3.54 0 0 0 .13 1 3.62 3.62 0 0 0 .38.85 4.51 4.51 0 0 0 .56.76 7.53 7.53 0 0 0 .7.68l.44.42c.19.18.38.36.59.54zm2.91-2.09l.43.39q.76.7 1.44 1.44a9.14 9.14 0 0 1 1.17 1.55 8.3 8.3 0 0 1 .79 1.77 6.88 6.88 0 0 1 .29 2.08 4.8 4.8 0 0 1-.4 2 4.62 4.62 0 0 1-1.08 1.53 5.09 5.09 0 0 1-1.61 1 6 6 0 0 1-2 .4v-2.86a1.7 1.7 0 0 0 .68-.18 1.36 1.36 0 0 0 .45-.41 1.84 1.84 0 0 0 .25-.59 3.33 3.33 0 0 0 .08-.73 3.9 3.9 0 0 0-.22-1.27 5.87 5.87 0 0 0-.58-1.18 7.52 7.52 0 0 0-.81-1.07c-.3-.34-.62-.66-.94-1l-.47-.43zM98.6 0a5.11 5.11 0 0 1 2 .42 5.11 5.11 0 0 1 2.68 2.69 5.73 5.73 0 0 1 .45 2v.43l-3.76.59v-.71a6.1 6.1 0 0 0-.1-.82 4.45 4.45 0 0 0-.24-.78 2.37 2.37 0 0 0-.42-.64 1.43 1.43 0 0 0-.63-.37z" fill="#ff931e"/></svg>