<svg xmlns="http://www.w3.org/2000/svg" width="270" height="102" viewBox="0 0 155.71 58.53"><path d="M8.45 17.47a2.61 2.61 0 0 0-1.46.59 3.34 3.34 0 0 0-.88 1.2 5.37 5.37 0 0 0-.44 1.57 12.25 12.25 0 0 0-.12 1.7v13.71a12.25 12.25 0 0 0 .12 1.7 5.43 5.43 0 0 0 .43 1.59 3.31 3.31 0 0 0 .88 1.2 2.75 2.75 0 0 0 1.47.59v4.32a9.17 9.17 0 0 1-4-.93 7.16 7.16 0 0 1-2.6-2.3 9.26 9.26 0 0 1-1.41-3.33 18.74 18.74 0 0 1-.42-4.06V23.9a19.48 19.48 0 0 1 .41-4.13 9.43 9.43 0 0 1 1.4-3.38 7.07 7.07 0 0 1 2.61-2.32 9.21 9.21 0 0 1 4-.94zm.88-4.34a9.26 9.26 0 0 1 4 .94 7.23 7.23 0 0 1 2.61 2.32 9.3 9.3 0 0 1 1.42 3.37 19.36 19.36 0 0 1 .42 4.14v11a19.06 19.06 0 0 1-.42 4.08 9.41 9.41 0 0 1-1.41 3.36 7.21 7.21 0 0 1-2.61 2.34 9 9 0 0 1-4 1v-4.39a2.82 2.82 0 0 0 1.49-.58 3.27 3.27 0 0 0 .87-1.18 5.27 5.27 0 0 0 .43-1.57 12.51 12.51 0 0 0 .12-1.71V22.53a12.51 12.51 0 0 0-.12-1.71 5.59 5.59 0 0 0-.43-1.57 3.44 3.44 0 0 0-.9-1.19 2.64 2.64 0 0 0-1.47-.59zm19.25 32.5a7.86 7.86 0 0 1-3.46-.92 7.75 7.75 0 0 1-2.45-2.09 9.62 9.62 0 0 1-1.5-2.9 14 14 0 0 1-.64-3.36l5.57-1.12q0 1 .15 2a9.57 9.57 0 0 0 .39 1.82 4.45 4.45 0 0 0 .74 1.47 2.18 2.18 0 0 0 1.2.79zm-2.09-15.1l-1.27-1.2c-.58-.52-1.16-1-1.71-1.6a11.36 11.36 0 0 1-1.5-1.81 8.86 8.86 0 0 1-1-2.19 8.77 8.77 0 0 1-.4-2.71 8.46 8.46 0 0 1 .57-3.18 6.93 6.93 0 0 1 1.59-2.43 7.35 7.35 0 0 1 2.46-1.61 9.88 9.88 0 0 1 3.17-.69v4.27a2.23 2.23 0 0 0-1 .32 2.63 2.63 0 0 0-.73.68 2.84 2.84 0 0 0-.43.93 4.44 4.44 0 0 0-.14 1.11 5.28 5.28 0 0 0 .2 1.47 5.33 5.33 0 0 0 .57 1.29 7.52 7.52 0 0 0 .84 1.13 12.65 12.65 0 0 0 1 1l.67.62.88.82zm4.39-3.11l.65.58c.76.7 1.48 1.42 2.15 2.15a15 15 0 0 1 1.73 2.38 11.51 11.51 0 0 1 1.18 2.65 10.39 10.39 0 0 1 .44 3.13 7.22 7.22 0 0 1-.59 3 6.88 6.88 0 0 1-1.63 2.22 7.63 7.63 0 0 1-2.41 1.51 8.7 8.7 0 0 1-2.94.59v-4.27a2.5 2.5 0 0 0 1-.27 2.09 2.09 0 0 0 .68-.61 2.62 2.62 0 0 0 .37-.89 4.69 4.69 0 0 0 .12-1.1 5.64 5.64 0 0 0-.33-1.91 8.19 8.19 0 0 0-.86-1.76 11.75 11.75 0 0 0-1.22-1.61c-.46-.51-.93-1-1.41-1.43l-.7-.65zm-1.65-14.31a7.82 7.82 0 0 1 3 .64 7.58 7.58 0 0 1 2.4 1.64 7.74 7.74 0 0 1 1.62 2.46 8.54 8.54 0 0 1 .68 3v.68l-5.64.87v-.51a4.7 4.7 0 0 0 0-.54 7.68 7.68 0 0 0-.16-1.23 5.41 5.41 0 0 0-.36-1.18 3.25 3.25 0 0 0-.62-.95 2.13 2.13 0 0 0-1-.56zm18.42 31.92H43.1l-4.57-31.32h4.8l2 16.36zm-1.44-15l2.5-16.34h4.41l2.48 16.38 2.33 14.94h-4.05l-2.93-22-2.68 20.31zm10.32 0l2-16.38h4.8L58.8 45.03zm15.57-4.95l-3.48 20h-5.36l6.62-31.37h4.25zm3-11.37l6.65 31.32h-5.5l-1.36-7h-4.11l.48-3.26h3.2l-1.51-9.31zm9.1 31.32V13.71h5.55v31.32zm6.43-3.89h5.91v3.89h-5.91zm8.25 3.89V13.71h5.55v31.32zm6.43-4h.16a11.41 11.41 0 0 0 2.13-.16 2.82 2.82 0 0 0 1.33-.59 2.28 2.28 0 0 0 .7-1.14 7.13 7.13 0 0 0 .2-1.83V21.09a4.33 4.33 0 0 0-.25-1.58 2.3 2.3 0 0 0-.77-1.06 3.54 3.54 0 0 0-1.33-.59 9 9 0 0 0-1.92-.18h-.25v-4h.21a16.2 16.2 0 0 1 4.87.61 6.77 6.77 0 0 1 3 1.86 6.86 6.86 0 0 1 1.54 3.11 19.5 19.5 0 0 1 .43 4.38v10.89a30.53 30.53 0 0 1-.15 3.15 11.89 11.89 0 0 1-.55 2.62 6.9 6.9 0 0 1-1.11 2.06 5.91 5.91 0 0 1-1.8 1.5 9.15 9.15 0 0 1-2.65.91 18.76 18.76 0 0 1-3.67.31h-.16zm21.81-23.56a2.61 2.61 0 0 0-1.46.59 3.34 3.34 0 0 0-.88 1.2 5.37 5.37 0 0 0-.44 1.57 12.25 12.25 0 0 0-.12 1.7v13.71a12.25 12.25 0 0 0 .12 1.7 5.43 5.43 0 0 0 .43 1.56 3.31 3.31 0 0 0 .88 1.2 2.75 2.75 0 0 0 1.47.59v4.32a9.14 9.14 0 0 1-4-.93 7.16 7.16 0 0 1-2.6-2.3 9.26 9.26 0 0 1-1.41-3.33 18.74 18.74 0 0 1-.42-4.06V23.9a19.48 19.48 0 0 1 .41-4.13 9.43 9.43 0 0 1 1.4-3.38 7.07 7.07 0 0 1 2.61-2.32 9.21 9.21 0 0 1 4-.94zm.88-4.34a9.26 9.26 0 0 1 4 .94 7.23 7.23 0 0 1 2.61 2.32 9.3 9.3 0 0 1 1.42 3.37 19.36 19.36 0 0 1 .42 4.14v11a19.06 19.06 0 0 1-.42 4.08 9.41 9.41 0 0 1-1.41 3.36 7.21 7.21 0 0 1-2.61 2.34 9 9 0 0 1-4 1v-4.39a2.82 2.82 0 0 0 1.49-.58 3.27 3.27 0 0 0 .88-1.19 5.27 5.27 0 0 0 .43-1.57 12.51 12.51 0 0 0 .12-1.71V22.53a12.51 12.51 0 0 0-.12-1.71 5.59 5.59 0 0 0-.43-1.57 3.44 3.44 0 0 0-.9-1.19 2.64 2.64 0 0 0-1.47-.59zm19.25 32.5a7.86 7.86 0 0 1-3.46-.92 7.75 7.75 0 0 1-2.45-2.09 9.62 9.62 0 0 1-1.5-2.9 14 14 0 0 1-.64-3.36l5.57-1.12q0 1 .15 2a9.57 9.57 0 0 0 .39 1.82 4.45 4.45 0 0 0 .74 1.44 2.18 2.18 0 0 0 1.2.79zm-2.09-15.1l-1.28-1.18c-.58-.52-1.16-1-1.71-1.6a11.36 11.36 0 0 1-1.5-1.81 8.86 8.86 0 0 1-1.05-2.19 8.77 8.77 0 0 1-.4-2.71 8.46 8.46 0 0 1 .57-3.18 6.93 6.93 0 0 1 1.59-2.43 7.35 7.35 0 0 1 2.5-1.61 9.88 9.88 0 0 1 3.17-.69v4.27a2.23 2.23 0 0 0-1 .32 2.5 2.5 0 0 0-.73.68 2.84 2.84 0 0 0-.43.93 4.44 4.44 0 0 0-.14 1.11 5.28 5.28 0 0 0 .2 1.47 5.72 5.72 0 0 0 .56 1.29 8.35 8.35 0 0 0 .85 1.13 12.65 12.65 0 0 0 1 1l.67.62.88.82zm4.36-3.13l.65.58c.76.7 1.48 1.42 2.15 2.15a15 15 0 0 1 1.76 2.4 11.51 11.51 0 0 1 1.18 2.65 10.39 10.39 0 0 1 .44 3.13 7.22 7.22 0 0 1-.59 3 6.88 6.88 0 0 1-1.63 2.22 7.63 7.63 0 0 1-2.41 1.51 8.7 8.7 0 0 1-2.94.59v-4.27a2.5 2.5 0 0 0 1-.27 2.09 2.09 0 0 0 .68-.61 2.62 2.62 0 0 0 .37-.89 4.69 4.69 0 0 0 .12-1.1 5.64 5.64 0 0 0-.33-1.91 8.19 8.19 0 0 0-.86-1.76 11.75 11.75 0 0 0-1.23-1.61c-.46-.51-.93-1-1.41-1.43l-.7-.65zm-1.64-14.29a7.82 7.82 0 0 1 3 .64 7.58 7.58 0 0 1 2.4 1.64 7.74 7.74 0 0 1 1.6 2.46 8.54 8.54 0 0 1 .68 3v.68l-5.64.87v-.51a4.7 4.7 0 0 0 0-.54 7.68 7.68 0 0 0-.16-1.23 5.41 5.41 0 0 0-.36-1.18 3.25 3.25 0 0 0-.62-.95 2.13 2.13 0 0 0-.95-.56z" fill="#ff931e"/><path d="M19.38 3q58.36 1.06 116.75.4a1.5 1.5 0 0 0 0-3Q77.75 1.08 19.38 0c-1.93 0-1.93 3 0 3zm-.25 55.53h117.25a1.5 1.5 0 0 0 0-3H19.13a1.5 1.5 0 0 0 0 3z" fill="#f15a24"/></svg>