<svg xmlns="http://www.w3.org/2000/svg" xmlns:xlink="http://www.w3.org/1999/xlink"><symbol id="icon-clock" viewBox="0 0 141.67 139.54"><path d="M71.83 21.46V1a1 1 0 0 0-2 0v20.46h1zm-26.06 6.98c.57-.35 1.15-.68 1.73-1L37.26 9.74a1 1 0 0 0-1.36-.36 1 1 0 0 0-.37 1.36zM10.5 34.73a1 1 0 0 0 .37 1.36l17.68 10.27c.32-.58.65-1.16 1-1.73L11.87 34.36a1 1 0 0 0-1.37.37zm95.91-26.21a1 1 0 0 0-1.37.36l-10.8 18.6c.58.33 1.16.66 1.73 1l10.8-18.59a1 1 0 0 0-.36-1.37zm25.37 27.15a1 1 0 0 0 .37-1.37 1 1 0 0 0-1.37-.36l-18.61 10.77c.34.56.67 1.14 1 1.73zM22.5 69.77v-1H1a1 1 0 0 0 0 2h21.53c-.01-.33-.03-.66-.03-1zm118.17-1h-21.53v2h21.53a1 1 0 1 0 0-2zm-9.87 34.68l-17.68-10.27c-.32.58-.65 1.16-1 1.73l17.68 10.27a1 1 0 1 0 1-1.73zm-120.92.42a1 1 0 0 0 .51 1.87.93.93 0 0 0 .5-.14L29.5 94.84c-.35-.57-.67-1.15-1-1.74zm86.02 7.23c-.57.35-1.15.68-1.73 1l10.23 17.7a1 1 0 0 0 .87.5.93.93 0 0 0 .5-.14 1 1 0 0 0 .36-1.36zm-61.01 18.55a1 1 0 0 0 .37 1.37 1 1 0 0 0 .5.14 1 1 0 0 0 .86-.5l10.81-18.6c-.59-.33-1.17-.65-1.73-1zm34.94-11.57v20.46a1 1 0 0 0 2 0v-20.46h-1zm34.92-66.19a1.503 1.503 0 0 0-1.51-2.6L74.81 65.74a5.65 5.65 0 0 0-7.95 0L46.52 53.92a1.503 1.503 0 0 0-1.51 2.6l20.35 11.82a5.66 5.66 0 1 0 11.14 1.44 5.55 5.55 0 0 0-.19-1.43zM75.34 66.35v-.08zm.4.59zm-9.78-.05zm.42-.62l-.05.06zm4.45 6.17a2.67 2.67 0 1 1 2.67-2.67 2.67 2.67 0 0 1-2.67 2.67z" fill="#fff"/></symbol><symbol id="icon-facebook" viewBox="0 0 24 24"><path d="M9 8H6v4h3v12h5V12h3.642L18 8h-4V6.333C14 5.378 14.192 5 15.115 5H18V0h-3.808C10.596 0 9 1.583 9 4.615V8z" fill="#f7f4f1"/></symbol><symbol id="icon-instagram" viewBox="0 0 24 24"><path d="M12 2.163c3.204 0 3.584.012 4.85.07 3.252.148 4.771 1.691 4.919 4.919.058 1.265.069 1.645.069 4.849 0 3.205-.012 3.584-.069 4.849-.149 3.225-1.664 4.771-4.919 4.919-1.266.058-1.644.07-4.85.07-3.204 0-3.584-.012-4.849-.07-3.26-.149-4.771-1.699-4.919-4.92-.058-1.265-.07-1.644-.07-4.849 0-3.204.013-3.583.07-4.849.149-3.227 1.664-4.771 4.919-4.919 1.266-.057 1.645-.069 4.849-.069zM12 0C8.741 0 8.333.014 7.053.072 2.695.272.273 2.69.073 7.052.014 8.333 0 8.741 0 12c0 3.259.014 3.668.072 4.948.2 4.358 2.618 6.78 6.98 6.98C8.333 23.986 8.741 24 12 24c3.259 0 3.668-.014 4.948-.072 4.354-.2 6.782-2.618 6.979-6.98.059-1.28.073-1.689.073-4.948 0-3.259-.014-3.667-.072-4.947-.196-4.354-2.617-6.78-6.979-6.98C15.668.014 15.259 0 12 0zm0 5.838a6.162 6.162 0 1 0 0 12.324 6.162 6.162 0 0 0 0-12.324zM12 16a4 4 0 1 1 0-8 4 4 0 0 1 0 8zm6.406-11.845a1.44 1.44 0 1 0 0 2.881 1.44 1.44 0 0 0 0-2.881z" fill="#f7f4f1"/></symbol><symbol id="icon-shopping-cart" viewBox="0 0 24 24"><path d="M10 19.5a1.5 1.5 0 1 1-3 0 1.5 1.5 0 0 1 3 0zm3.5-1.5a1.5 1.5 0 1 0 0 3 1.5 1.5 0 0 0 0-3zm1.336-5l1.977-7H0l2.938 7h11.898zm4.969-10l-3.432 12H3.776l.839 2h13.239l3.474-12h1.929L24 3h-4.195z" fill="#826550"/></symbol><symbol id="icon-twitter" viewBox="0 0 24 24"><path d="M24 4.557a9.83 9.83 0 0 1-2.828.775 4.932 4.932 0 0 0 2.165-2.724 9.864 9.864 0 0 1-3.127 1.195 4.916 4.916 0 0 0-3.594-1.555c-3.179 0-5.515 2.966-4.797 6.045A13.978 13.978 0 0 1 1.671 3.149a4.93 4.93 0 0 0 1.523 6.574 4.903 4.903 0 0 1-2.229-.616c-.054 2.281 1.581 4.415 3.949 4.89a4.935 4.935 0 0 1-2.224.084 4.928 4.928 0 0 0 4.6 3.419A9.9 9.9 0 0 1 0 19.54a13.94 13.94 0 0 0 7.548 2.212c9.142 0 14.307-7.721 13.995-14.646A10.025 10.025 0 0 0 24 4.557z" fill="#f7f4f1"/></symbol><symbol id="login-icon" viewBox="0 0 16 16"><path d="M0 7h7.01V4.06l3.95 3.95-3.95 3.9V9.06L0 9.02V7z"/><path d="M7.01 0v2h7.02v11.99H7.01V16H16V0H7.01z"/></symbol></svg>